#!OML:ASF H:\Martial Arts Walks\Project 1\Capture day 1\Session 1\male.ASF
:FULLY-SPECIFIED
:DEGREES
659
root -1.01643 14.3368 3.33809 8.17062 -27.003 -12.1048
lowerback 13.4743 4.33353 4.902
upperback -1.00783 6.73782 2.14082
thorax -8.3312 3.08406 -1.81569
lowerneck -1.75156 1.31412 -2.42653
upperneck 3.71255 1.67864 4.02987
head 1.39999 0.874016 1.70735
rclavicle 9.69075e-015 -3.57812e-014
rhumerus -52.1091 19.7335 -87.6448
rradius 96.7763
rwrist 10.3515
rhand -13.5337 -33.6351
rfingers 7.12502
rthumb 12.5787 -63.2364
lclavicle 9.69075e-015 -3.57812e-014
lhumerus -22.2421 -18.5772 81.8232
lradius 85.0946
lwrist 20.8883
lhand -32.5317 18.4124
lfingers 7.12502
lthumb -5.76212 48.3141
rfemur -4.62871 -10.9154 14.1019
rtibia 58.3496
rfoot -29.8523 -22.5542
rtoes -21.5431
lfemur -57.3256 18.4451 -1.44939
ltibia 65.4682
lfoot -6.45977 -1.51064
ltoes -9.98311
660
root -1.0132 14.3627 3.3942 8.37649 -26.709 -12.4027
lowerback 13.2981 4.26873 5.1751
upperback -1.08414 6.69601 2.23431
thorax -8.29781 3.05463 -1.84641
lowerneck -1.64609 1.3347 -2.37937
upperneck 3.67066 1.70104 4.11299
head 1.36733 0.88598 1.72415
rclavicle 1.58034e-014 -1.31198e-014
rhumerus -52.3473 20.0538 -87.7334
rradius 97.0377
rwrist 10.0534
rhand -13.6361 -33.5797
rfingers 7.12502
rthumb 12.4799 -63.1871
lclavicle 1.58034e-014 -1.31198e-014
lhumerus -21.3331 -18.6364 81.5866
lradius 85.9464
lwrist 22.3157
lhand -33.024 18.7931
lfingers 7.12502
lthumb -6.23735 48.6813
rfemur -4.13132 -10.6956 14.5373
rtibia 57.2894
rfoot -30.3419 -22.2759
rtoes -20.3359
lfemur -57.5131 18.8014 -1.55075
ltibia 65.5847
lfoot -6.50479 -1.5354
ltoes -9.65573
661
root -1.01388 14.3852 3.44407 8.58921 -26.4986 -12.6309
lowerback 13.1343 4.25625 5.32929
upperback -1.18485 6.70685 2.32737
thorax -8.30821 3.05412 -1.82477
lowerneck -1.53551 1.33573 -2.42374
upperneck 3.61413 1.69962 4.22431
head 1.3295 0.885086 1.76566
rclavicle 2.09221e-014 2.70347e-014
rhumerus -52.6107 20.3404 -87.7445
rradius 97.3336
rwrist 9.77008
rhand -13.8233 -33.6572
rfingers 7.12502
rthumb 12.2995 -63.2754
lclavicle 2.09221e-014 2.70347e-014
lhumerus -20.5008 -18.4963 81.415
lradius 86.8438
lwrist 23.4654
lhand -32.901 20.0599
lfingers 7.12502
lthumb -6.11864 49.9515
rfemur -3.66382 -10.397 14.9231
rtibia 56.1723
rfoot -30.2149 -22.6762
rtoes -20.2512
lfemur -57.7826 19.3294 -1.8385
ltibia 65.7255
lfoot -6.52974 -1.40895
ltoes -8.63992
662
root -1.01557 14.4142 3.51901 8.71642 -26.7361 -12.7195
lowerback 12.6627 4.39453 5.45735
upperback -1.18097 6.87436 2.31705
thorax -8.00894 3.14268 -1.89291
lowerneck -1.44926 1.3152 -2.46279
upperneck 3.55922 1.66895 4.35556
head 1.29751 0.87015 1.81274
rclavicle -7.10655e-015 1.23246e-014
rhumerus -52.7957 20.5303 -87.7567
rradius 97.5441
rwrist 9.59922
rhand -14.1384 -33.8302
rfingers 7.12502
rthumb 11.9957 -63.4664
lclavicle -7.10655e-015 1.23246e-014
lhumerus -19.5036 -18.5733 81.1472
lradius 87.5348
lwrist 24.4048
lhand -33.1402 20.4242
lfingers 7.12502
lthumb -6.34953 50.309
rfemur -3.03939 -9.77968 14.9707
rtibia 54.9917
rfoot -29.8777 -23.1448
rtoes -20.7976
lfemur -57.8213 20.2757 -2.40478
ltibia 65.8995
lfoot -6.4444 -1.06043
ltoes -7.43305
663
root -1.01973 14.4347 3.57137 8.87196 -26.6783 -12.7474
lowerback 12.3676 4.41861 5.47371
upperback -1.28886 6.89537 2.32663
thorax -7.9558 3.1545 -1.87375
lowerneck -1.25911 1.30332 -2.48938
upperneck 3.47586 1.65041 4.44007
head 1.23821 0.859302 1.84095
rclavicle -1.00883e-014 9.54166e-015
rhumerus -52.9921 20.7477 -87.8126
rradius 97.6799
rwrist 9.42323
rhand -14.3242 -33.7463
rfingers 7.12502
rthumb 11.8165 -63.3929
lclavicle -1.00883e-014 9.54166e-015
lhumerus -18.7565 -18.502 80.9121
lradius 88.316
lwrist 25.0207
lhand -33.1914 20.8838
lfingers 7.12502
lthumb -6.39896 50.7671
rfemur -2.39489 -9.26881 15.0919
rtibia 53.8217
rfoot -29.7549 -23.3676
rtoes -21.459
lfemur -58.2242 21.0847 -3.19072
ltibia 66.0788
lfoot -6.17981 -0.426237
ltoes -5.58383
